<svg xmlns="http://www.w3.org/2000/svg" xmlns:xlink="http://www.w3.org/1999/xlink" width="500" zoomAndPan="magnify" viewBox="0 0 375 374.999991" height="500" preserveAspectRatio="xMidYMid meet" version="1.0"><defs><g/><clipPath id="3e2edb5a04"><path d="M 342 41 L 373.574219 41 L 373.574219 350 L 342 350 Z M 342 41 " clip-rule="nonzero"/></clipPath><clipPath id="14479010cc"><path d="M 1.574219 56 L 53 56 L 53 350 L 1.574219 350 Z M 1.574219 56 " clip-rule="nonzero"/></clipPath></defs><path fill="#ffffff" d="M 194.925781 65.0625 C 116.328125 65.0625 52.617188 128.808594 52.617188 207.441406 C 52.617188 286.078125 116.328125 349.824219 194.925781 349.824219 C 273.519531 349.824219 337.230469 286.078125 337.230469 207.441406 C 337.230469 128.808594 273.503906 65.0625 194.925781 65.0625 Z M 194.925781 320.300781 C 132.625 320.300781 82.109375 269.761719 82.109375 207.429688 C 82.109375 145.097656 132.625 94.554688 194.925781 94.554688 C 257.222656 94.554688 307.738281 145.097656 307.738281 207.429688 C 307.738281 269.761719 257.222656 320.300781 194.925781 320.300781 Z M 194.925781 320.300781 " fill-opacity="1" fill-rule="nonzero"/><path fill="#ffffff" d="M 294.554688 207.429688 C 294.554688 209.058594 294.515625 210.691406 294.433594 212.320312 C 294.355469 213.949219 294.234375 215.574219 294.074219 217.199219 C 293.914062 218.824219 293.714844 220.441406 293.476562 222.054688 C 293.234375 223.667969 292.957031 225.277344 292.640625 226.875 C 292.320312 228.476562 291.964844 230.066406 291.566406 231.648438 C 291.171875 233.230469 290.738281 234.804688 290.265625 236.363281 C 289.789062 237.925781 289.277344 239.476562 288.730469 241.011719 C 288.179688 242.546875 287.59375 244.070312 286.96875 245.574219 C 286.347656 247.082031 285.683594 248.574219 284.988281 250.046875 C 284.292969 251.523438 283.558594 252.980469 282.789062 254.417969 C 282.019531 255.859375 281.21875 257.277344 280.378906 258.675781 C 279.542969 260.074219 278.667969 261.453125 277.761719 262.808594 C 276.855469 264.164062 275.917969 265.5 274.949219 266.808594 C 273.976562 268.121094 272.972656 269.40625 271.9375 270.667969 C 270.90625 271.929688 269.839844 273.164062 268.746094 274.371094 C 267.648438 275.582031 266.527344 276.761719 265.371094 277.914062 C 264.21875 279.070312 263.039062 280.191406 261.832031 281.289062 C 260.625 282.382812 259.390625 283.449219 258.128906 284.484375 C 256.867188 285.519531 255.582031 286.523438 254.273438 287.496094 C 252.964844 288.464844 251.632812 289.40625 250.273438 290.3125 C 248.917969 291.21875 247.542969 292.089844 246.144531 292.929688 C 244.746094 293.769531 243.328125 294.570312 241.890625 295.339844 C 240.449219 296.109375 238.996094 296.84375 237.519531 297.539062 C 236.046875 298.238281 234.558594 298.898438 233.050781 299.523438 C 231.542969 300.148438 230.023438 300.734375 228.488281 301.285156 C 226.953125 301.832031 225.40625 302.34375 223.84375 302.820312 C 222.285156 303.292969 220.714844 303.726562 219.132812 304.125 C 217.550781 304.519531 215.960938 304.878906 214.359375 305.195312 C 212.761719 305.515625 211.15625 305.792969 209.542969 306.03125 C 207.929688 306.273438 206.3125 306.472656 204.6875 306.632812 C 203.066406 306.792969 201.441406 306.910156 199.8125 306.992188 C 198.183594 307.070312 196.554688 307.113281 194.925781 307.113281 C 193.292969 307.113281 191.664062 307.070312 190.035156 306.992188 C 188.40625 306.910156 186.78125 306.792969 185.160156 306.632812 C 183.535156 306.472656 181.917969 306.273438 180.304688 306.03125 C 178.691406 305.792969 177.085938 305.515625 175.488281 305.195312 C 173.886719 304.878906 172.296875 304.519531 170.714844 304.125 C 169.132812 303.726562 167.5625 303.292969 166.003906 302.820312 C 164.441406 302.34375 162.894531 301.835938 161.359375 301.285156 C 159.824219 300.734375 158.304688 300.148438 156.796875 299.523438 C 155.289062 298.898438 153.800781 298.238281 152.328125 297.539062 C 150.851562 296.84375 149.398438 296.109375 147.957031 295.339844 C 146.519531 294.570312 145.101562 293.769531 143.703125 292.929688 C 142.304688 292.089844 140.929688 291.21875 139.574219 290.3125 C 138.214844 289.40625 136.882812 288.464844 135.574219 287.496094 C 134.265625 286.523438 132.980469 285.519531 131.71875 284.484375 C 130.457031 283.449219 129.222656 282.382812 128.015625 281.289062 C 126.808594 280.191406 125.628906 279.070312 124.476562 277.914062 C 123.320312 276.761719 122.199219 275.582031 121.101562 274.371094 C 120.007812 273.164062 118.941406 271.929688 117.910156 270.667969 C 116.875 269.40625 115.871094 268.121094 114.898438 266.808594 C 113.929688 265.5 112.992188 264.164062 112.085938 262.808594 C 111.179688 261.453125 110.304688 260.074219 109.46875 258.675781 C 108.628906 257.277344 107.828125 255.859375 107.058594 254.417969 C 106.289062 252.980469 105.554688 251.523438 104.859375 250.046875 C 104.164062 248.574219 103.5 247.082031 102.878906 245.574219 C 102.253906 244.070312 101.667969 242.546875 101.117188 241.011719 C 100.570312 239.476562 100.058594 237.925781 99.582031 236.363281 C 99.109375 234.804688 98.675781 233.230469 98.28125 231.648438 C 97.882812 230.066406 97.527344 228.476562 97.207031 226.875 C 96.890625 225.277344 96.613281 223.667969 96.371094 222.054688 C 96.132812 220.441406 95.933594 218.824219 95.773438 217.199219 C 95.613281 215.574219 95.492188 213.949219 95.414062 212.320312 C 95.332031 210.691406 95.292969 209.058594 95.292969 207.429688 C 95.292969 205.796875 95.332031 204.167969 95.414062 202.539062 C 95.492188 200.910156 95.613281 199.28125 95.773438 197.660156 C 95.933594 196.035156 96.132812 194.417969 96.371094 192.800781 C 96.613281 191.1875 96.890625 189.582031 97.207031 187.980469 C 97.527344 186.382812 97.882812 184.789062 98.28125 183.207031 C 98.675781 181.625 99.109375 180.054688 99.582031 178.492188 C 100.058594 176.929688 100.570312 175.382812 101.117188 173.847656 C 101.667969 172.3125 102.253906 170.789062 102.878906 169.28125 C 103.5 167.773438 104.164062 166.285156 104.859375 164.808594 C 105.554688 163.335938 106.289062 161.878906 107.058594 160.4375 C 107.828125 159 108.628906 157.582031 109.46875 156.183594 C 110.304688 154.78125 111.179688 153.40625 112.085938 152.046875 C 112.992188 150.691406 113.929688 149.359375 114.898438 148.046875 C 115.871094 146.738281 116.875 145.453125 117.910156 144.191406 C 118.941406 142.929688 120.007812 141.695312 121.101562 140.484375 C 122.199219 139.277344 123.320312 138.097656 124.476562 136.941406 C 125.628906 135.789062 126.808594 134.664062 128.015625 133.570312 C 129.222656 132.472656 130.457031 131.40625 131.71875 130.375 C 132.980469 129.339844 134.265625 128.335938 135.574219 127.363281 C 136.882812 126.390625 138.214844 125.453125 139.574219 124.546875 C 140.929688 123.640625 142.304688 122.765625 143.703125 121.929688 C 145.101562 121.089844 146.519531 120.285156 147.957031 119.515625 C 149.398438 118.746094 150.851562 118.015625 152.328125 117.316406 C 153.800781 116.621094 155.289062 115.957031 156.796875 115.335938 C 158.304688 114.710938 159.824219 114.121094 161.359375 113.574219 C 162.894531 113.023438 164.441406 112.511719 166.003906 112.039062 C 167.5625 111.566406 169.132812 111.128906 170.714844 110.734375 C 172.296875 110.335938 173.886719 109.980469 175.488281 109.660156 C 177.085938 109.34375 178.691406 109.066406 180.304688 108.824219 C 181.917969 108.585938 183.535156 108.386719 185.160156 108.226562 C 186.78125 108.066406 188.40625 107.945312 190.035156 107.867188 C 191.664062 107.785156 193.292969 107.746094 194.925781 107.746094 C 196.554688 107.746094 198.183594 107.785156 199.8125 107.867188 C 201.441406 107.945312 203.066406 108.066406 204.6875 108.226562 C 206.3125 108.386719 207.929688 108.585938 209.542969 108.824219 C 211.15625 109.066406 212.761719 109.34375 214.359375 109.660156 C 215.960938 109.980469 217.550781 110.335938 219.132812 110.734375 C 220.714844 111.128906 222.285156 111.566406 223.84375 112.039062 C 225.40625 112.511719 226.953125 113.023438 228.488281 113.574219 C 230.023438 114.121094 231.542969 114.710938 233.050781 115.335938 C 234.558594 115.957031 236.046875 116.621094 237.519531 117.316406 C 238.996094 118.015625 240.449219 118.746094 241.890625 119.515625 C 243.328125 120.285156 244.746094 121.089844 246.144531 121.929688 C 247.542969 122.765625 248.917969 123.640625 250.273438 124.546875 C 251.632812 125.453125 252.964844 126.390625 254.273438 127.363281 C 255.582031 128.335938 256.867188 129.339844 258.128906 130.375 C 259.390625 131.40625 260.625 132.472656 261.832031 133.570312 C 263.039062 134.664062 264.21875 135.789062 265.371094 136.941406 C 266.527344 138.097656 267.648438 139.277344 268.746094 140.484375 C 269.839844 141.695312 270.90625 142.929688 271.9375 144.191406 C 272.972656 145.453125 273.976562 146.738281 274.949219 148.046875 C 275.917969 149.359375 276.855469 150.691406 277.761719 152.046875 C 278.667969 153.40625 279.542969 154.78125 280.378906 156.183594 C 281.21875 157.582031 282.019531 159 282.789062 160.4375 C 283.558594 161.878906 284.292969 163.335938 284.988281 164.808594 C 285.683594 166.285156 286.347656 167.773438 286.96875 169.28125 C 287.59375 170.789062 288.179688 172.3125 288.730469 173.847656 C 289.277344 175.382812 289.789062 176.929688 290.265625 178.492188 C 290.738281 180.054688 291.171875 181.625 291.566406 183.207031 C 291.964844 184.789062 292.320312 186.382812 292.640625 187.980469 C 292.957031 189.582031 293.234375 191.1875 293.476562 192.800781 C 293.714844 194.417969 293.914062 196.035156 294.074219 197.660156 C 294.234375 199.28125 294.355469 200.910156 294.433594 202.539062 C 294.515625 204.167969 294.554688 205.796875 294.554688 207.429688 Z M 294.554688 207.429688 " fill-opacity="1" fill-rule="nonzero"/><g clip-path="url(#3e2edb5a04)"><path fill="#ffffff" d="M 356.636719 55.503906 C 338.828125 87.507812 339.246094 118.976562 352.386719 159.613281 C 352.386719 159.613281 358.265625 178.800781 353.914062 194.886719 C 352.804688 198.980469 352.386719 203.234375 352.386719 207.472656 L 352.371094 339.1875 C 352.371094 345.382812 357.761719 350.402344 364.085938 349.753906 C 369.589844 349.191406 373.609375 344.214844 373.609375 338.679688 L 373.609375 232.945312 L 373.625 199.617188 L 373.609375 55.519531 C 373.636719 55.503906 373.636719 24.957031 356.636719 55.503906 Z M 356.636719 55.503906 " fill-opacity="1" fill-rule="nonzero"/></g><g clip-path="url(#14479010cc)"><path fill="#ffffff" d="M 47.648438 56.816406 L 47.054688 56.816406 C 44.304688 56.816406 42.085938 114.003906 42.085938 114.003906 C 42.085938 116.394531 40.328125 118.429688 37.964844 118.773438 C 35.070312 119.191406 32.460938 116.941406 32.460938 114.003906 C 32.460938 114.003906 30.226562 56.816406 27.492188 56.816406 L 26.828125 56.816406 C 24.074219 56.816406 21.855469 114.046875 21.855469 114.046875 C 21.855469 116.957031 19.277344 119.207031 16.398438 118.816406 L 15.804688 118.730469 C 13.429688 118.398438 11.640625 116.367188 11.640625 113.960938 C 11.640625 113.960938 9.410156 56.800781 6.671875 56.800781 C 3.917969 56.800781 1.699219 119.148438 1.699219 119.148438 C 1.699219 126.933594 3.414062 138.925781 11.859375 145.890625 C 16.886719 150.042969 18.054688 154.566406 18.15625 156.457031 L 18.15625 339.15625 C 18.15625 344.996094 22.9375 349.78125 28.773438 349.78125 C 34.609375 349.78125 39.390625 344.996094 39.390625 339.15625 L 39.390625 157.25 L 39.40625 157.25 C 39.378906 156.84375 39.40625 156.484375 39.390625 156.09375 L 39.390625 154.796875 C 39.636719 149.667969 41.738281 146.753906 44.03125 144.835938 C 52.675781 137.628906 52.675781 126.355469 52.675781 119.234375 C 52.617188 119.234375 50.398438 56.816406 47.648438 56.816406 Z M 47.648438 56.816406 " fill-opacity="1" fill-rule="nonzero"/></g><g fill="#000000" fill-opacity="1"><g transform="translate(112.950438, 191.823228)"><g><path d="M 6.28125 0 L 3.65625 0 L 3.65625 -24.1875 L 7.875 -24.1875 L 15.203125 -3.703125 L 15.5625 -3.703125 L 22.890625 -24.1875 L 26.953125 -24.1875 L 26.953125 0 L 24.265625 0 L 24.265625 -19.734375 L 23.84375 -19.8125 L 16.703125 0 L 13.875 0 L 6.703125 -19.8125 L 6.28125 -19.734375 Z M 6.28125 0 "/></g></g></g><g fill="#000000" fill-opacity="1"><g transform="translate(143.58251, 191.823228)"><g><path d="M 17.390625 -8.5 L 4.84375 -8.46875 C 4.9375 -6.257812 5.472656 -4.640625 6.453125 -3.609375 C 7.441406 -2.578125 8.796875 -2.0625 10.515625 -2.0625 C 11.804688 -2.0625 12.847656 -2.289062 13.640625 -2.75 C 14.441406 -3.21875 15.066406 -3.953125 15.515625 -4.953125 L 15.875 -4.953125 L 17.625 -3.90625 C 17.09375 -2.582031 16.242188 -1.539062 15.078125 -0.78125 C 13.921875 -0.03125 12.398438 0.34375 10.515625 0.34375 C 8.742188 0.34375 7.222656 0 5.953125 -0.6875 C 4.679688 -1.382812 3.703125 -2.4375 3.015625 -3.84375 C 2.335938 -5.257812 2 -7.019531 2 -9.125 C 2 -11.195312 2.359375 -12.941406 3.078125 -14.359375 C 3.804688 -15.785156 4.796875 -16.847656 6.046875 -17.546875 C 7.296875 -18.242188 8.726562 -18.59375 10.34375 -18.59375 C 12.675781 -18.59375 14.5 -17.929688 15.8125 -16.609375 C 17.132812 -15.296875 17.800781 -13.34375 17.8125 -10.75 C 17.8125 -9.738281 17.785156 -9.054688 17.734375 -8.703125 Z M 15.140625 -10.75 C 15.097656 -12.695312 14.664062 -14.109375 13.84375 -14.984375 C 13.03125 -15.867188 11.863281 -16.3125 10.34375 -16.3125 C 8.738281 -16.3125 7.484375 -15.867188 6.578125 -14.984375 C 5.671875 -14.097656 5.117188 -12.6875 4.921875 -10.75 Z M 15.140625 -10.75 "/></g></g></g><g fill="#000000" fill-opacity="1"><g transform="translate(163.044053, 191.823228)"><g><path d="M 10.46875 0.34375 C 8.863281 0.34375 7.421875 -0.0195312 6.140625 -0.75 C 4.859375 -1.488281 3.847656 -2.570312 3.109375 -4 C 2.367188 -5.425781 2 -7.132812 2 -9.125 C 2 -11.113281 2.367188 -12.820312 3.109375 -14.25 C 3.847656 -15.6875 4.859375 -16.769531 6.140625 -17.5 C 7.421875 -18.226562 8.863281 -18.59375 10.46875 -18.59375 C 12.40625 -18.59375 13.941406 -18.226562 15.078125 -17.5 C 16.222656 -16.78125 17.050781 -15.8125 17.5625 -14.59375 L 15.71875 -13.265625 L 15.390625 -13.265625 C 14.890625 -14.273438 14.25 -15.015625 13.46875 -15.484375 C 12.695312 -15.953125 11.695312 -16.1875 10.46875 -16.1875 C 9.34375 -16.1875 8.351562 -15.921875 7.5 -15.390625 C 6.65625 -14.859375 6 -14.0625 5.53125 -13 C 5.0625 -11.945312 4.828125 -10.65625 4.828125 -9.125 C 4.828125 -7.59375 5.0625 -6.300781 5.53125 -5.25 C 6.007812 -4.195312 6.671875 -3.398438 7.515625 -2.859375 C 8.359375 -2.328125 9.34375 -2.0625 10.46875 -2.0625 C 11.738281 -2.0625 12.789062 -2.347656 13.625 -2.921875 C 14.457031 -3.503906 15.113281 -4.410156 15.59375 -5.640625 L 15.9375 -5.640625 L 17.703125 -4.59375 C 17.234375 -3.0625 16.390625 -1.851562 15.171875 -0.96875 C 13.953125 -0.09375 12.382812 0.34375 10.46875 0.34375 Z M 10.46875 0.34375 "/></g></g></g><g fill="#000000" fill-opacity="1"><g transform="translate(181.860187, 191.823228)"><g><path d="M 3.171875 0 L 3.171875 -25.578125 L 5.875 -25.578125 L 5.875 -15.65625 L 6.21875 -15.59375 C 7.519531 -17.59375 9.398438 -18.59375 11.859375 -18.59375 C 14.054688 -18.59375 15.648438 -18.03125 16.640625 -16.90625 C 17.628906 -15.789062 18.125 -14.070312 18.125 -11.75 L 18.125 0 L 15.421875 0 L 15.421875 -11.6875 C 15.421875 -12.789062 15.28125 -13.675781 15 -14.34375 C 14.71875 -15.007812 14.28125 -15.492188 13.6875 -15.796875 C 13.101562 -16.097656 12.332031 -16.25 11.375 -16.25 C 9.71875 -16.25 8.382812 -15.710938 7.375 -14.640625 C 6.375 -13.578125 5.875 -11.816406 5.875 -9.359375 L 5.875 0 Z M 3.171875 0 "/></g></g></g><g fill="#000000" fill-opacity="1"><g transform="translate(202.877329, 191.823228)"><g><path d="M 9.046875 0 L 5.640625 0 L 1.171875 -18.25 L 3.84375 -18.25 L 7.296875 -3.140625 L 7.640625 -3.140625 L 11.890625 -18.25 L 14.734375 -18.25 L 19.109375 -3.140625 L 19.453125 -3.140625 L 22.859375 -18.25 L 25.4375 -18.25 L 21.015625 0 L 17.59375 0 L 13.421875 -14.171875 L 13.078125 -14.171875 Z M 9.046875 0 "/></g></g></g><g fill="#000000" fill-opacity="1"><g transform="translate(229.48801, 191.823228)"><g><path d="M 7.53125 0.34375 C 5.726562 0.34375 4.320312 -0.125 3.3125 -1.0625 C 2.300781 -2 1.796875 -3.335938 1.796875 -5.078125 C 1.796875 -6.160156 2.019531 -7.070312 2.46875 -7.8125 C 2.914062 -8.5625 3.609375 -9.171875 4.546875 -9.640625 C 5.484375 -10.109375 6.707031 -10.46875 8.21875 -10.71875 C 9.539062 -10.9375 10.546875 -11.179688 11.234375 -11.453125 C 11.929688 -11.734375 12.394531 -12.046875 12.625 -12.390625 C 12.863281 -12.734375 12.984375 -13.164062 12.984375 -13.6875 C 12.984375 -14.507812 12.695312 -15.140625 12.125 -15.578125 C 11.5625 -16.023438 10.65625 -16.25 9.40625 -16.25 C 8.21875 -16.25 7.203125 -16.019531 6.359375 -15.5625 C 5.515625 -15.101562 4.738281 -14.421875 4.03125 -13.515625 L 3.703125 -13.515625 L 2.390625 -15.390625 C 3.160156 -16.367188 4.140625 -17.144531 5.328125 -17.71875 C 6.515625 -18.300781 7.875 -18.59375 9.40625 -18.59375 C 11.550781 -18.59375 13.132812 -18.117188 14.15625 -17.171875 C 15.175781 -16.234375 15.6875 -14.929688 15.6875 -13.265625 L 15.6875 -3.59375 C 15.6875 -2.570312 16.117188 -2.0625 16.984375 -2.0625 C 17.265625 -2.0625 17.539062 -2.113281 17.8125 -2.21875 L 18.03125 -2.15625 L 18.359375 -0.28125 C 18.148438 -0.144531 17.882812 -0.046875 17.5625 0.015625 C 17.238281 0.0859375 16.90625 0.125 16.5625 0.125 C 15.5625 0.125 14.800781 -0.09375 14.28125 -0.53125 C 13.769531 -0.96875 13.445312 -1.617188 13.3125 -2.484375 L 12.953125 -2.515625 C 12.429688 -1.554688 11.726562 -0.835938 10.84375 -0.359375 C 9.96875 0.109375 8.863281 0.34375 7.53125 0.34375 Z M 8.125 -1.796875 C 9.132812 -1.796875 10.007812 -2.03125 10.75 -2.5 C 11.5 -2.96875 12.070312 -3.628906 12.46875 -4.484375 C 12.875 -5.335938 13.078125 -6.320312 13.078125 -7.4375 L 13.078125 -9.75 L 12.765625 -9.8125 C 12.347656 -9.519531 11.847656 -9.273438 11.265625 -9.078125 C 10.679688 -8.890625 9.863281 -8.722656 8.8125 -8.578125 C 7.757812 -8.429688 6.921875 -8.207031 6.296875 -7.90625 C 5.671875 -7.613281 5.222656 -7.238281 4.953125 -6.78125 C 4.691406 -6.320312 4.5625 -5.753906 4.5625 -5.078125 C 4.5625 -4.003906 4.875 -3.1875 5.5 -2.625 C 6.132812 -2.070312 7.007812 -1.796875 8.125 -1.796875 Z M 8.125 -1.796875 "/></g></g></g><g fill="#000000" fill-opacity="1"><g transform="translate(248.37034, 191.823228)"><g><path d="M 3.171875 0 L 3.171875 -18.25 L 5.75 -18.25 L 5.75 -15.390625 L 6.09375 -15.3125 C 6.9375 -17.382812 8.535156 -18.421875 10.890625 -18.421875 C 12.140625 -18.421875 13.070312 -18.191406 13.6875 -17.734375 L 12.984375 -15.453125 L 12.65625 -15.390625 C 11.976562 -15.734375 11.226562 -15.90625 10.40625 -15.90625 C 8.945312 -15.90625 7.828125 -15.359375 7.046875 -14.265625 C 6.265625 -13.171875 5.875 -11.398438 5.875 -8.953125 L 5.875 0 Z M 3.171875 0 "/></g></g></g><g fill="#000000" fill-opacity="1"><g transform="translate(262.47003, 191.823228)"><g><path d="M 12.34375 -2.890625 L 13.203125 -0.953125 C 12.773438 -0.523438 12.207031 -0.203125 11.5 0.015625 C 10.800781 0.234375 10.046875 0.34375 9.234375 0.34375 C 5.742188 0.34375 4 -1.421875 4 -4.953125 L 4 -16.03125 L 0.828125 -16.03125 L 0.828125 -18.25 L 4 -18.25 L 4 -22.125 L 6.703125 -22.578125 L 6.703125 -18.25 L 12.578125 -18.25 L 12.578125 -16.03125 L 6.703125 -16.03125 L 6.703125 -5.21875 C 6.703125 -3.113281 7.613281 -2.0625 9.4375 -2.0625 C 10.425781 -2.0625 11.28125 -2.335938 12 -2.890625 Z M 12.34375 -2.890625 "/></g></g></g><g fill="#000000" fill-opacity="1"><g transform="translate(128.474785, 238.657621)"><g><path d="M 6.5 -11.40625 L 6.5 -2.34375 L 18.828125 -2.34375 L 18.828125 0 L 3.65625 0 L 3.65625 -24.1875 L 18.5625 -24.1875 L 18.5625 -21.84375 L 6.5 -21.84375 L 6.5 -13.75 L 17.140625 -13.75 L 17.140625 -11.40625 Z M 12.34375 -25.9375 L 10.203125 -25.9375 L 10.203125 -26.28125 L 12.96875 -30.5625 L 16.421875 -30.5625 L 16.421875 -30.21875 Z M 12.34375 -25.9375 "/></g></g></g><g fill="#000000" fill-opacity="1"><g transform="translate(148.912715, 238.657621)"><g><path d="M 12.34375 -2.890625 L 13.203125 -0.953125 C 12.773438 -0.523438 12.207031 -0.203125 11.5 0.015625 C 10.800781 0.234375 10.046875 0.34375 9.234375 0.34375 C 5.742188 0.34375 4 -1.421875 4 -4.953125 L 4 -16.03125 L 0.828125 -16.03125 L 0.828125 -18.25 L 4 -18.25 L 4 -22.125 L 6.703125 -22.578125 L 6.703125 -18.25 L 12.578125 -18.25 L 12.578125 -16.03125 L 6.703125 -16.03125 L 6.703125 -5.21875 C 6.703125 -3.113281 7.613281 -2.0625 9.4375 -2.0625 C 10.425781 -2.0625 11.28125 -2.335938 12 -2.890625 Z M 12.34375 -2.890625 "/></g></g></g><g fill="#000000" fill-opacity="1"><g transform="translate(162.813818, 238.657621)"><g><path d="M 12.34375 -2.890625 L 13.203125 -0.953125 C 12.773438 -0.523438 12.207031 -0.203125 11.5 0.015625 C 10.800781 0.234375 10.046875 0.34375 9.234375 0.34375 C 5.742188 0.34375 4 -1.421875 4 -4.953125 L 4 -16.03125 L 0.828125 -16.03125 L 0.828125 -18.25 L 4 -18.25 L 4 -22.125 L 6.703125 -22.578125 L 6.703125 -18.25 L 12.578125 -18.25 L 12.578125 -16.03125 L 6.703125 -16.03125 L 6.703125 -5.21875 C 6.703125 -3.113281 7.613281 -2.0625 9.4375 -2.0625 C 10.425781 -2.0625 11.28125 -2.335938 12 -2.890625 Z M 12.34375 -2.890625 "/></g></g></g><g fill="#000000" fill-opacity="1"><g transform="translate(176.71492, 238.657621)"><g><path d="M 17.390625 -8.5 L 4.84375 -8.46875 C 4.9375 -6.257812 5.472656 -4.640625 6.453125 -3.609375 C 7.441406 -2.578125 8.796875 -2.0625 10.515625 -2.0625 C 11.804688 -2.0625 12.847656 -2.289062 13.640625 -2.75 C 14.441406 -3.21875 15.066406 -3.953125 15.515625 -4.953125 L 15.875 -4.953125 L 17.625 -3.90625 C 17.09375 -2.582031 16.242188 -1.539062 15.078125 -0.78125 C 13.921875 -0.03125 12.398438 0.34375 10.515625 0.34375 C 8.742188 0.34375 7.222656 0 5.953125 -0.6875 C 4.679688 -1.382812 3.703125 -2.4375 3.015625 -3.84375 C 2.335938 -5.257812 2 -7.019531 2 -9.125 C 2 -11.195312 2.359375 -12.941406 3.078125 -14.359375 C 3.804688 -15.785156 4.796875 -16.847656 6.046875 -17.546875 C 7.296875 -18.242188 8.726562 -18.59375 10.34375 -18.59375 C 12.675781 -18.59375 14.5 -17.929688 15.8125 -16.609375 C 17.132812 -15.296875 17.800781 -13.34375 17.8125 -10.75 C 17.8125 -9.738281 17.785156 -9.054688 17.734375 -8.703125 Z M 15.140625 -10.75 C 15.097656 -12.695312 14.664062 -14.109375 13.84375 -14.984375 C 13.03125 -15.867188 11.863281 -16.3125 10.34375 -16.3125 C 8.738281 -16.3125 7.484375 -15.867188 6.578125 -14.984375 C 5.671875 -14.097656 5.117188 -12.6875 4.921875 -10.75 Z M 15.140625 -10.75 "/></g></g></g><g fill="#000000" fill-opacity="1"><g transform="translate(196.176463, 238.657621)"><g><path d="M 3.171875 0 L 3.171875 -18.25 L 5.75 -18.25 L 5.75 -15.390625 L 6.09375 -15.3125 C 6.9375 -17.382812 8.535156 -18.421875 10.890625 -18.421875 C 12.140625 -18.421875 13.070312 -18.191406 13.6875 -17.734375 L 12.984375 -15.453125 L 12.65625 -15.390625 C 11.976562 -15.734375 11.226562 -15.90625 10.40625 -15.90625 C 8.945312 -15.90625 7.828125 -15.359375 7.046875 -14.265625 C 6.265625 -13.171875 5.875 -11.398438 5.875 -8.953125 L 5.875 0 Z M 3.171875 0 "/></g></g></g><g fill="#000000" fill-opacity="1"><g transform="translate(210.276152, 238.657621)"><g><path d="M 17.390625 -8.5 L 4.84375 -8.46875 C 4.9375 -6.257812 5.472656 -4.640625 6.453125 -3.609375 C 7.441406 -2.578125 8.796875 -2.0625 10.515625 -2.0625 C 11.804688 -2.0625 12.847656 -2.289062 13.640625 -2.75 C 14.441406 -3.21875 15.066406 -3.953125 15.515625 -4.953125 L 15.875 -4.953125 L 17.625 -3.90625 C 17.09375 -2.582031 16.242188 -1.539062 15.078125 -0.78125 C 13.921875 -0.03125 12.398438 0.34375 10.515625 0.34375 C 8.742188 0.34375 7.222656 0 5.953125 -0.6875 C 4.679688 -1.382812 3.703125 -2.4375 3.015625 -3.84375 C 2.335938 -5.257812 2 -7.019531 2 -9.125 C 2 -11.195312 2.359375 -12.941406 3.078125 -14.359375 C 3.804688 -15.785156 4.796875 -16.847656 6.046875 -17.546875 C 7.296875 -18.242188 8.726562 -18.59375 10.34375 -18.59375 C 12.675781 -18.59375 14.5 -17.929688 15.8125 -16.609375 C 17.132812 -15.296875 17.800781 -13.34375 17.8125 -10.75 C 17.8125 -9.738281 17.785156 -9.054688 17.734375 -8.703125 Z M 15.140625 -10.75 C 15.097656 -12.695312 14.664062 -14.109375 13.84375 -14.984375 C 13.03125 -15.867188 11.863281 -16.3125 10.34375 -16.3125 C 8.738281 -16.3125 7.484375 -15.867188 6.578125 -14.984375 C 5.671875 -14.097656 5.117188 -12.6875 4.921875 -10.75 Z M 15.140625 -10.75 "/></g></g></g><g fill="#000000" fill-opacity="1"><g transform="translate(229.737696, 238.657621)"><g><path d="M 3.171875 0 L 3.171875 -18.25 L 5.75 -18.25 L 5.75 -15.5625 L 6.09375 -15.484375 C 6.707031 -16.515625 7.453125 -17.289062 8.328125 -17.8125 C 9.203125 -18.332031 10.253906 -18.59375 11.484375 -18.59375 C 12.898438 -18.59375 13.992188 -18.328125 14.765625 -17.796875 C 15.535156 -17.265625 16.132812 -16.398438 16.5625 -15.203125 L 16.90625 -15.203125 C 17.539062 -16.316406 18.316406 -17.160156 19.234375 -17.734375 C 20.160156 -18.304688 21.296875 -18.59375 22.640625 -18.59375 C 24.515625 -18.59375 25.910156 -18.085938 26.828125 -17.078125 C 27.753906 -16.066406 28.21875 -14.519531 28.21875 -12.4375 L 28.21875 0 L 25.515625 0 L 25.515625 -12.375 C 25.515625 -13.695312 25.234375 -14.671875 24.671875 -15.296875 C 24.117188 -15.929688 23.226562 -16.25 22 -16.25 C 20.539062 -16.25 19.347656 -15.71875 18.421875 -14.65625 C 17.503906 -13.601562 17.046875 -11.863281 17.046875 -9.4375 L 17.046875 0 L 14.34375 0 L 14.34375 -12.375 C 14.34375 -13.695312 14.0625 -14.671875 13.5 -15.296875 C 12.945312 -15.929688 12.054688 -16.25 10.828125 -16.25 C 9.367188 -16.25 8.175781 -15.734375 7.25 -14.703125 C 6.332031 -13.679688 5.875 -12.019531 5.875 -9.71875 L 5.875 0 Z M 3.171875 0 "/></g></g></g></svg>